# xmcd
#
# Track frame offsets:
#	150
#	10176
#	20979
#	29922
#	39299
#	52504
#	62313
#	71284
#	82331
#	95442
#	107188
#	119995
#	132234
#	145555
#	156537
#
# Disc length: 2241 seconds
#
# Revision: 1
# Processed by: cddbd v1.5.2PL0 Copyright (c) Steve Scherf et al.
# Submitted via: audiograbber 1.83.01
#
DISCID=d008bf0f
DTITLE=Various Artist - Hangover Tavern
DYEAR=1900
DGENRE=Country
TTITLE0=Your Old Love Letters
TTITLE1=I'd Rather Loan You Out
TTITLE2=Optimistic
TTITLE3=Too Many Times
TTITLE4=Signed Sealed And Delivered
TTITLE5=The Hand Yuor Holding Now
TTITLE6=Crazy Bullfrog
TTITLE7=Last Date
TTITLE8=Kisses Never Lie
TTITLE9=The Restless One
TTITLE10=Pleas Mr Kennedy
TTITLE11=Poka Dot Banjo
TTITLE12=I Love You Best Of All
TTITLE13=Sunny Tennessee
TTITLE14=Hangover Traven
EXTD=
EXTT0=
EXTT1=
EXTT2=
EXTT3=
EXTT4=
EXTT5=
EXTT6=
EXTT7=
EXTT8=
EXTT9=
EXTT10=
EXTT11=
EXTT12=
EXTT13=
EXTT14=
PLAYORDER=
